<svg xmlns="http://www.w3.org/2000/svg" xmlns:xlink="http://www.w3.org/1999/xlink" style="vertical-align:.23ex;margin-bottom:-.36ex" width="2.979ex" height="3.884ex" viewBox="0 -1616.6 1282.5 1672.4"><defs><path id="a" stroke-width="1" d="M133 760q0 24 17 42t43 18q24 0 42-16t19-43q0-25-17-43t-43-18-43 17-18 43zm447-300q0 24 17 42t43 18q24 0 42-16t19-43q0-25-17-43t-43-18-43 17-18 43zm447-300q0 24 17 42t43 18q24 0 42-16t19-43q0-25-17-43t-43-18-43 17-18 43z"/></defs><use fill="currentColor" stroke="currentColor" stroke-width="0" transform="scale(1 -1)" xlink:href="#a"/></svg>